<?xml version="1.0" standalone="no"?>
<svg viewBox="0 0 200 200" xmlns="http://www.w3.org/2000/svg">
  <path fill="#0F62FE" d="M41.8,-68.7C53,-66,60,-52.3,66,-39.1C71.9,-25.8,76.8,-12.9,76.8,0C76.8,12.9,71.8,25.8,61.9,32.2C52,38.6,37.2,38.6,26,42.7C14.9,46.7,7.4,54.8,-4.5,62.6C-16.4,70.4,-32.9,77.9,-40.7,71.9C-48.5,66,-47.6,46.5,-50.6,32.3C-53.5,18,-60.1,9,-59.5,0.4C-58.9,-8.3,-50.9,-16.5,-44.9,-25.4C-38.9,-34.2,-34.7,-43.6,-27.6,-48.6C-20.4,-53.6,-10.2,-54.1,2.6,-58.6C15.3,-63,30.7,-71.3,41.8,-68.7Z" transform="translate(100 100)" />
</svg>
