<!--?xml version="1.0" standalone="no"?-->
              <svg id="sw-js-blob-svg" viewBox="0 0 100 100" xmlns="http://www.w3.org/2000/svg" version="1.1">
                    <defs> 
                        <linearGradient id="sw-gradient" x1="0" x2="1" y1="1" y2="0">
                            <stop id="stop1" stop-color="rgba(248, 117, 55, 1)" offset="0%"></stop>
                            <stop id="stop2" stop-color="rgba(251, 168, 31, 1)" offset="100%"></stop>
                        </linearGradient>
                    </defs>
                <path fill="url(#sw-gradient)" d="M17.7,-25.4C23.5,-23.9,29.1,-19.9,30.6,-14.6C32,-9.3,29.2,-2.8,29.4,5.1C29.6,13,32.8,22.1,29.7,25.8C26.6,29.5,17.1,27.8,9.3,28.7C1.5,29.6,-4.6,33.1,-10,32.3C-15.4,31.5,-20,26.4,-25.2,21.3C-30.3,16.2,-36,11.1,-37.4,5C-38.9,-1.1,-36.1,-8.2,-31.3,-12.4C-26.4,-16.6,-19.4,-18,-13.9,-19.7C-8.3,-21.3,-4.2,-23.2,0.9,-24.6C6,-26,12,-27,17.7,-25.4Z" width="100%" height="100%" transform="translate(50 50)" stroke-width="0" style="transition: all 0.3s ease 0s;"></path>
              </svg>