<!--?xml version="1.0" standalone="no"?-->
              <svg id="sw-js-blob-svg" viewBox="0 0 100 100" xmlns="http://www.w3.org/2000/svg" version="1.1">
                    <defs> 
                        <linearGradient id="sw-gradient" x1="0" x2="1" y1="1" y2="0">
                            <stop id="stop1" stop-color="rgba(248, 117, 55, 1)" offset="0%"></stop>
                            <stop id="stop2" stop-color="rgba(251, 168, 31, 1)" offset="100%"></stop>
                        </linearGradient>
                    </defs>
                <path fill="url(#sw-gradient)" d="M19.8,-24C26.2,-18.3,32.3,-12.5,34.2,-5.5C36,1.5,33.7,9.8,29.6,17.3C25.5,24.7,19.7,31.4,11.9,35.4C4.1,39.5,-5.6,40.9,-14.4,38.3C-23.2,35.7,-31,29,-33.3,21.1C-35.6,13.2,-32.4,4,-29.7,-4.2C-27,-12.4,-24.7,-19.6,-19.8,-25.5C-15,-31.5,-7.5,-36.3,-0.4,-35.9C6.7,-35.4,13.4,-29.7,19.8,-24Z" width="100%" height="100%" transform="translate(50 50)" stroke-width="0" style="transition: all 0.3s ease 0s;"></path>
              </svg>